<svg version="1.1" xmlns="http://www.w3.org/2000/svg" xmlns:xlink="http://www.w3.org/1999/xlink" width="158.01426" height="64.72263" viewBox="0,0,158.01426,64.72263"><g transform="translate(-160.99287,-147.63868)"><g data-paper-data="{&quot;isPaintingLayer&quot;:true}" fill-rule="nonzero" stroke="#000000" stroke-linejoin="miter" stroke-miterlimit="10" stroke-dasharray="" stroke-dashoffset="0" style="mix-blend-mode: normal"><path d="M162.74287,210.61132v-61.22263h154.51426v61.22263z" fill-opacity="0.00392" fill="#000000" stroke-width="3.5" stroke-linecap="butt"/><path d="M186.86667,177.01989l2.80136,0.77916c1.59192,-0.1569 3.30019,-0.09099 5.03964,0.23243c6.64201,1.23493 11.22347,5.75665 10.23298,10.09953c-0.99049,4.34289 -7.17786,6.86239 -13.81985,5.62746c-3.38506,-0.62937 -6.23493,-2.11244 -8.08476,-3.99047" fill="none" stroke-width="5.5" stroke-linecap="butt"/><path d="M192.53333,178.82569l4.15169,-0.04727c-1.32254,0.05741 -2.71077,-0.03561 -4.11945,-0.29753c-6.64201,-1.23494 -11.22347,-5.75666 -10.23298,-10.09954c0.99048,-4.34288 7.17785,-6.86238 13.81984,-5.62745c2.34505,0.43602 4.43325,1.28174 6.11006,2.38464" fill="none" stroke-width="5.5" stroke-linecap="butt"/><path d="M218.01955,193.69126v-30.0755l-14.15287,-1.53733l3.34168,0.21822h23.08333" fill="none" stroke-width="5.5" stroke-linecap="round"/><path d="M243.65649,182.43022h-7.26095l-7.1872,13.77813l10.40736,-29.28584l12.10159,29.0438z" fill="none" stroke-width="5.5" stroke-linecap="round"/><path d="M257.79169,193.9629v-32.19665l2.24629,20.02783l12.95611,12.92936" fill="none" stroke-width="5.5" stroke-linecap="round"/><path d="M259.16108,162.51273c6.51302,0 11.79287,4.76714 11.79287,10.64771c0,5.57704 -4.74888,10.15262 -10.79476,10.61011c0.95391,-0.21109 1.85996,-0.53221 2.70073,-0.94759c4.53152,-1.30568 7.81325,-5.13807 7.81325,-9.66251c0,-0.04231 -0.00028,-0.08456 -0.00087,-0.12676c0.00057,-0.0422 0.00087,-0.08446 0.00087,-0.12676c0,-5.60054 -5.02842,-10.14067 -11.23131,-10.14067c-0.25193,0 -0.50192,0.00748 -0.74971,0.02222c-0.00037,-0.08958 -0.00133,-0.17872 -0.00292,-0.26739c0.15652,-0.00556 0.31383,-0.00837 0.47185,-0.00837z" fill-opacity="0.01176" fill="#000000" stroke-width="5.5" stroke-linecap="butt"/><path d="M287.01955,193.69126v-30.0755l-14.15287,-1.53733l3.34168,0.21822h23.08333" fill="none" stroke-width="5.5" stroke-linecap="round"/></g></g></svg>