<svg version="1.1" xmlns="http://www.w3.org/2000/svg" xmlns:xlink="http://www.w3.org/1999/xlink" width="96.6728" height="118.82941" viewBox="0,0,96.6728,118.82941"><g transform="translate(-191.6636,-120.58529)"><g data-paper-data="{&quot;isPaintingLayer&quot;:true}" fill-rule="nonzero" stroke="#000000" stroke-linejoin="miter" stroke-miterlimit="10" stroke-dasharray="" stroke-dashoffset="0" style="mix-blend-mode: normal"><path d="M206.5864,237.66471c0,0 -12.67266,-15.03033 -11.32212,-27.83924c1.39861,-13.26478 9.82212,-24.47322 9.82212,-33.46076c0,-12.55049 -5.5,-34.7 -5.5,-34.7h79.5c0,0 7.5,20.75449 7.5,33.7c0,7.86174 -9.99624,21.62934 -11.65213,33.90529c-2.05143,15.20835 8.65213,28.39471 8.65213,28.39471z" fill-opacity="0.01176" fill="#ffffff" stroke-width="3.5" stroke-linecap="butt"/><path d="M198.9136,141.3647v-19.02941h82v19.02941z" fill-opacity="0.01176" fill="#ffffff" stroke-width="3.5" stroke-linecap="butt"/><path d="M193.4136,135.86471v-9h5v9z" fill-opacity="0.01176" fill="#ffffff" stroke-width="3.5" stroke-linecap="butt"/><path d="M281.41361,136.36471v-9h5v9z" fill-opacity="0.01176" fill="#ffffff" stroke-width="3.5" stroke-linecap="butt"/><path d="M206.38362,150.03564l0.73227,0.20367c0.41612,-0.04101 0.86266,-0.02379 1.31734,0.06076c1.7362,0.3228 2.93377,1.50476 2.67486,2.63997c-0.25891,1.13521 -1.87626,1.7938 -3.61245,1.471c-0.88484,-0.16451 -1.62978,-0.55218 -2.11333,-1.04309" fill="none" stroke-width="2" stroke-linecap="butt"/><path d="M207.86486,150.50766l1.08524,-0.01236c-0.34571,0.01501 -0.70858,-0.00931 -1.07681,-0.07778c-1.7362,-0.3228 -2.93377,-1.50477 -2.67487,-2.63998c0.25891,-1.13521 1.87627,-1.79379 3.61246,-1.47099c0.61299,0.11398 1.15884,0.33504 1.59715,0.62333" fill="none" stroke-width="2" stroke-linecap="butt"/><path d="M222.65677,146.88244l-2.23025,7.85493l-0.08148,-0.00949l-2.53523,-7.92222l-0.45513,0.02705l-2.22835,7.84823l-0.08686,-0.01364l-2.53176,-7.91136" fill="none" stroke-width="2" stroke-linecap="round"/><path d="M230.12677,150.71452c0,2.37825 -1.25984,4.30621 -2.81392,4.30621c-1.55408,0 -2.81391,-1.92796 -2.81391,-4.30621c0,-2.37825 1.25983,-4.30621 2.81391,-4.30621c1.55408,0 2.81392,1.92796 2.81392,4.30621z" fill-opacity="0.01176" fill="#000000" stroke-width="2" stroke-linecap="butt"/><path d="M232.63433,154.98726v-8.41608l0.58717,5.2352l3.38668,3.37968" fill="none" stroke-width="2" stroke-linecap="round"/><path d="M232.99228,146.76631c1.70248,0 3.08261,1.24612 3.08261,2.78328c0,1.45782 -1.24134,2.65385 -2.82171,2.77344c0.24935,-0.05517 0.48619,-0.13912 0.70597,-0.24769c1.18452,-0.3413 2.04235,-1.34307 2.04235,-2.52574c0,-0.01106 -0.00007,-0.0221 -0.00023,-0.03313c0.00015,-0.01103 0.00023,-0.02208 0.00023,-0.03314c0,-1.46396 -1.31441,-2.65073 -2.93582,-2.65073c-0.06585,0 -0.13119,0.00196 -0.19597,0.00581c-0.0001,-0.02341 -0.00035,-0.04672 -0.00077,-0.0699c0.04092,-0.00145 0.08203,-0.00218 0.12334,-0.00218z" fill-opacity="0.01176" fill="#000000" stroke-width="2" stroke-linecap="butt"/><path d="M244.09747,150.84026c0,2.27013 -2.35554,4.1321 -5.35226,4.31408c-0.0192,-0.03851 -0.03218,-0.07729 -0.0348,-0.1164c-0.03453,-0.51608 -0.05588,-1.09676 -0.07179,-1.69758c0.17685,-0.37666 0.31935,-0.7536 0.32826,-1.1228c0.04194,-1.73766 0.20985,-3.48365 -0.10943,-5.21345c0.04664,-0.15048 0.095,-0.30366 0.14163,-0.45837c2.87482,0.26857 5.0984,2.08891 5.0984,4.29452z" fill-opacity="0.01176" fill="#000000" stroke-width="2" stroke-linecap="butt"/><path d="M247.53071,150.16633l0.73227,0.20367c0.41612,-0.04101 0.86265,-0.02379 1.31734,0.06076c1.7362,0.3228 2.93377,1.50477 2.67486,2.63998c-0.25891,1.13521 -1.87627,1.7938 -3.61246,1.47099c-0.88484,-0.16451 -1.62978,-0.55218 -2.11332,-1.04309" fill="none" stroke-width="2" stroke-linecap="butt"/><path d="M249.01195,150.63836l1.08524,-0.01235c-0.34571,0.01501 -0.70859,-0.00932 -1.07681,-0.07778c-1.7362,-0.3228 -2.93377,-1.50476 -2.67486,-2.63997c0.25891,-1.13521 1.87627,-1.7938 3.61246,-1.47099c0.61299,0.11398 1.15883,0.33504 1.59714,0.62333" fill="none" stroke-width="2" stroke-linecap="butt"/><path d="M254.8498,154.30076v-7.02581l2.52683,3.0815l2.52683,-3.63617l-0.07019,7.58049" fill="none" stroke-width="2" stroke-linecap="round"/><path d="M266.55769,151.31918h-1.89799l-1.87871,3.60155l2.72045,-7.6552l3.16331,7.59194z" fill="none" stroke-width="2" stroke-linecap="round"/><path d="M275.80506,146.44612l-0.28863,7.67863l-4.32937,-6.02914v6.31354" fill="none" stroke-width="2" stroke-linecap="round"/></g></g></svg>