<svg version="1.1" xmlns="http://www.w3.org/2000/svg" xmlns:xlink="http://www.w3.org/1999/xlink" width="33.09284" height="27.19569" viewBox="0,0,33.09284,27.19569"><g transform="translate(-217.00397,-172.13304)"><g data-paper-data="{&quot;isPaintingLayer&quot;:true}" fill-rule="nonzero" stroke="#000000" stroke-width="0" stroke-linecap="butt" stroke-linejoin="miter" stroke-miterlimit="10" stroke-dasharray="" stroke-dashoffset="0" style="mix-blend-mode: normal"><path d="M217.27699,172.51232c0.94253,-1.17812 1.4204,-0.15668 15.16532,11.02915c7.95123,6.59851 14.37893,12.05502 13.62858,12.86616c-1.03999,1.27975 -7.2141,-4.43067 -15.16533,-11.02915c-12.67143,-10.96868 -14.77864,-11.50974 -13.62858,-12.86615z" data-paper-data="{&quot;index&quot;:null}" fill="#d99e82"/><path d="M233.70752,188.51403c-2.60529,1.49166 -5.89976,0.63564 -7.3584,-1.91198c-0.12822,-0.22394 -3.31032,-1.60946 -3.76793,-2.72661c-0.33551,-0.85331 2.67358,-1.64438 3.19629,-2.03768c1.22173,-1.07857 1.10859,-1.66817 2.64787,-2.54947c0.44987,-0.25758 -0.13972,-2.5814 0.83518,-2.55499c1.80313,0.04887 5.57647,2.81339 6.52322,4.46696c1.45864,2.54762 0.52908,5.82209 -2.07622,7.31375z" data-paper-data="{&quot;index&quot;:null}" fill="#fcb1e3"/><path d="M243.30406,190.18523c-0.6776,1.42702 -1.61179,2.56469 -2.80103,3.40539c-1.22578,0.86651 -2.28671,1.59725 -3.87842,1.31726c-3.136,-0.55162 -5.51163,-4.11293 -4.62995,-6.63816c0.20719,-0.59366 0.53095,-1.23241 0.78919,-1.61576c0.3614,-0.53649 0.38383,-0.59834 1.31068,-1.48824c1.56916,-1.25344 2.68124,-1.87873 4.62657,-1.53654c3.136,0.55162 5.16187,3.44152 4.58293,6.55605z" data-paper-data="{&quot;index&quot;:null}" fill="#ffd983"/><path d="M237.48058,197.37203c-0.84097,-1.86647 -0.55457,-2.67527 -0.28372,-4.15826c0.44225,-2.05867 1.28473,-2.86014 3.23309,-3.56782c0.73074,-0.26541 2.54233,-0.78231 3.56305,-0.89736c1.18999,-0.11592 2.22728,0.19079 3.08658,0.8059c0.77137,0.55215 0.99764,0.7165 2.07917,2.26835c0.86105,1.47068 1.47426,3.75506 0.246,5.55107c-1.18245,1.72903 -3.61975,1.95482 -6.10204,1.95482c-2.73541,0 -4.93977,-0.20655 -5.82214,-1.9567z" data-paper-data="{&quot;index&quot;:null}" fill="#a6d388"/><path d="M233.16616,179.52587z" data-paper-data="{&quot;index&quot;:null}" fill="#000000"/></g></g></svg>