<svg version="1.1" xmlns="http://www.w3.org/2000/svg" xmlns:xlink="http://www.w3.org/1999/xlink" width="276.88203" height="54.18217" viewBox="0,0,276.88203,54.18217"><g transform="translate(-5.68101,-3.92467)"><g data-paper-data="{&quot;isPaintingLayer&quot;:true}" fill-rule="nonzero" stroke-linejoin="miter" stroke-miterlimit="10" stroke-dasharray="" stroke-dashoffset="0" style="mix-blend-mode: normal"><path d="M22.21232,27.1146c-0.86393,0.6407 -1.83764,1.13167 -2.89908,1.43181c-5.03033,1.42243 -10.12632,-1.9797 -11.38222,-7.59887c-1.2559,-5.61917 1.80389,-11.32751 6.83422,-12.74994c1.38456,-0.39151 2.77409,-0.41752 4.08715,-0.13241" fill="none" stroke="#000000" stroke-width="4.5" stroke-linecap="butt"/><path d="M24.70862,29.39283l-0.80596,-21.95729l1.88046,10.58055l8.47006,-0.70589l0.25242,-9.87285l0.80921,22.14342" fill="none" stroke="#000000" stroke-width="4.5" stroke-linecap="round"/><path d="M47.7672,21.68107l-4.61783,0.0803l-4.41854,8.84214l6.29499,-18.74039l8.01762,18.3375z" fill="none" stroke="#000000" stroke-width="4.5" stroke-linecap="round"/><path d="M56.28118,30.74919l-0.37754,-21.70963l1.66345,13.47956l8.39147,8.57474l-3.13209,-4.7277" fill="none" stroke="#000000" stroke-width="4.5" stroke-linecap="round"/><path d="M56.77139,10.10351c4.14217,-0.07204 7.55596,3.08397 7.62491,7.04913c0.0654,3.7605 -2.90115,6.89826 -6.74086,7.2736c0.60419,-0.15288 1.17666,-0.37943 1.7065,-0.66881c2.86665,-0.93051 4.90884,-3.55093 4.85578,-6.60167c-0.0005,-0.02853 -0.00117,-0.05701 -0.00204,-0.08546c-0.00013,-0.02846 -0.00044,-0.05696 -0.00094,-0.08548c-0.06568,-3.77634 -3.31689,-6.78206 -7.26183,-6.71345c-0.16022,0.00279 -0.31913,0.0106 -0.47654,0.02327c-0.00128,-0.0604 -0.00294,-0.12049 -0.00499,-0.18026c0.09948,-0.00548 0.19949,-0.00912 0.29999,-0.01086z" fill-opacity="0.01176" fill="#000000" stroke="#000000" stroke-width="4.5" stroke-linecap="butt"/><path d="M78.29436,21.15019l-4.61783,0.0803l-4.41854,8.84214l6.29499,-18.74039l8.01762,18.3375z" fill="none" stroke="#000000" stroke-width="4.5" stroke-linecap="round"/><path d="M98.55231,27.05934c-0.86393,0.6407 -1.83764,1.13167 -2.89908,1.43181c-5.03033,1.42243 -10.12632,-1.9797 -11.38222,-7.59887c-1.2559,-5.61917 1.80389,-11.32751 6.83422,-12.74994c1.38456,-0.39151 2.77409,-0.41752 4.08715,-0.13241" fill="none" stroke="#000000" stroke-width="4.5" stroke-linecap="butt"/><path d="M106.65515,29.09331l-0.33264,-19.12748l-9.01798,-0.82118l2.12766,0.10182l14.68059,-0.2553" fill="none" stroke="#000000" stroke-width="4.5" stroke-linecap="round"/><path d="M127.87295,29.84591l-9.48454,-0.42944l-0.09476,-18.42417l8.32566,-1.33354l-8.28621,1.48774l0.11212,8.56076l8.79748,-0.153" fill="none" stroke="#000000" stroke-width="4.5" stroke-linecap="round"/><path d="M133.25716,30.68288l-0.37754,-21.70963l1.66345,13.47956l8.39147,8.57474l-3.13209,-4.7277" fill="none" stroke="#000000" stroke-width="4.5" stroke-linecap="round"/><path d="M133.74736,8.76504c4.14217,-0.07204 7.55596,3.08397 7.62491,7.04913c0.0654,3.7605 -2.90115,6.89826 -6.74086,7.2736c0.60419,-0.15288 1.17666,-0.37943 1.7065,-0.66881c2.86665,-0.93051 4.90884,-3.55092 4.85578,-6.60167c-0.0005,-0.02853 -0.00117,-0.05701 -0.00204,-0.08546c-0.00013,-0.02846 -0.00044,-0.05696 -0.00094,-0.08548c-0.06568,-3.77634 -3.31689,-6.78206 -7.26183,-6.71345c-0.16022,0.00279 -0.31913,0.0106 -0.47654,0.02327c-0.00128,-0.0604 -0.00294,-0.12049 -0.00499,-0.18026c0.09948,-0.00548 0.19949,-0.00912 0.29999,-0.01086z" fill-opacity="0.01176" fill="#000000" stroke="#000000" stroke-width="4.5" stroke-linecap="butt"/><path d="M178.70821,26.93773c-0.86393,0.6407 -1.83764,1.13167 -2.89908,1.43181c-5.03033,1.42243 -10.12632,-1.9797 -11.38222,-7.59887c-1.2559,-5.61917 1.80389,-11.32751 6.83422,-12.74994c1.38456,-0.39151 2.77409,-0.41752 4.08715,-0.13241" fill="none" stroke="#000000" stroke-width="4.5" stroke-linecap="butt"/><path d="M181.59182,29.84231l-0.37754,-21.70963l1.66345,13.47956l8.39147,8.57474l-3.13209,-4.7277" fill="none" stroke="#000000" stroke-width="4.5" stroke-linecap="round"/><path d="M182.08202,9.19663c4.14217,-0.07204 7.55596,3.08397 7.62491,7.04913c0.0654,3.7605 -2.90115,6.89826 -6.74086,7.2736c0.60419,-0.15288 1.17666,-0.37943 1.7065,-0.66881c2.86665,-0.93051 4.90884,-3.55093 4.85578,-6.60167c-0.0005,-0.02853 -0.00117,-0.05701 -0.00204,-0.08546c-0.00013,-0.02846 -0.00044,-0.05696 -0.00094,-0.08548c-0.06568,-3.77634 -3.31689,-6.78206 -7.26183,-6.71345c-0.16022,0.00279 -0.31913,0.0106 -0.47654,0.02327c-0.00128,-0.0604 -0.00294,-0.12049 -0.00499,-0.18026c0.09948,-0.00548 0.19949,-0.00912 0.29999,-0.01086z" fill-opacity="0.01176" fill="#000000" stroke="#000000" stroke-width="4.5" stroke-linecap="butt"/><path d="M204.84893,29.7796l-9.48454,-0.42944l-0.09476,-18.42417l8.32566,-1.33354l-8.28621,1.48774l0.11212,8.56076l8.79748,-0.153" fill="none" stroke="#000000" stroke-width="4.5" stroke-linecap="round"/><path d="M218.23258,19.98892l-4.61783,0.0803l-4.41854,8.84214l6.29499,-18.74039l8.01762,18.3375z" fill="none" stroke="#000000" stroke-width="4.5" stroke-linecap="round"/><path d="M232.62388,29.44733l-0.33264,-19.12748l-9.01798,-0.82118l2.12766,0.10182l14.68059,-0.2553" fill="none" stroke="#000000" stroke-width="4.5" stroke-linecap="round"/><path d="M245.28439,7.03022l0.61016,22.89168" fill="none" stroke="#000000" stroke-width="4.5" stroke-linecap="round"/><path d="M264.24827,18.67134c0.10063,5.78634 -2.88299,10.53041 -6.66411,10.59616c-3.78112,0.06576 -6.92789,-4.5717 -7.02852,-10.35804c-0.10063,-5.78634 2.88299,-10.53041 6.66411,-10.59616c3.78112,-0.06576 6.92789,4.5717 7.02852,10.35804z" fill-opacity="0.01176" fill="#000000" stroke="#000000" stroke-width="4.5" stroke-linecap="butt"/><path d="M280.31305,9.27607l-0.37733,18.69447l-10.78856,-14.48584l0.26714,15.36097" fill="none" stroke="#000000" stroke-width="4.5" stroke-linecap="round"/><path d="M10.79169,55.86389v-17.09764l1.19287,10.63553l6.88019,6.86598" fill="none" stroke="#000000" stroke-width="3.5" stroke-linecap="round"/><path d="M11.51889,39.16266c3.45866,0 6.26246,2.53153 6.26246,5.65433c0,2.96162 -2.52184,5.39143 -5.73243,5.63437c0.50656,-0.11209 0.98771,-0.28263 1.43419,-0.50321c2.40641,-0.69336 4.14914,-2.72851 4.14914,-5.13116c0,-0.02247 -0.00015,-0.0449 -0.00047,-0.06732c0.00031,-0.02241 0.00047,-0.04485 0.00047,-0.06732c0,-2.9741 -2.67028,-5.38507 -5.96425,-5.38507c-0.13378,0 -0.26654,0.00398 -0.39813,0.0118c-0.00019,-0.04757 -0.0007,-0.09491 -0.00155,-0.142c0.08312,-0.00296 0.16666,-0.00444 0.25057,-0.00444z" fill-opacity="0.01176" fill="#000000" stroke="#000000" stroke-width="3.5" stroke-linecap="butt"/><path d="M30.3683,49.20856h-3.85584l-3.81667,7.31671l5.5267,-15.55189l6.4264,15.42336z" fill="none" stroke="#000000" stroke-width="3.5" stroke-linecap="round"/><path d="M47.7236,54.96627c-0.73046,0.52227 -1.55037,0.91797 -2.44075,1.1531c-4.21965,1.11433 -8.42407,-1.79953 -9.39084,-6.50828c-0.96677,-4.70875 1.67021,-9.4293 5.88986,-10.54363c1.16142,-0.30671 2.32169,-0.30825 3.41362,-0.05119" fill="none" stroke="#000000" stroke-width="3.5" stroke-linecap="butt"/><path d="M58.35115,56.12484l-7.91085,-0.49615l0.18836,-15.38069l6.96909,-0.9923l-6.93839,1.12158l-0.03069,7.1476h7.34579" fill="none" stroke="#000000" stroke-width="3.5" stroke-linecap="round"/><path d="" fill-opacity="0.01176" fill="#000000" stroke="none" stroke-width="0.5" stroke-linecap="butt"/><path d="M62.307,42.78772c0,-1.31122 1.06295,-2.37417 2.37417,-2.37417c1.31122,0 2.37417,1.06295 2.37417,2.37417c0,1.31122 -1.06295,2.37417 -2.37417,2.37417c-1.31122,0 -2.37417,-1.06295 -2.37417,-2.37417z" fill="#000000" stroke="none" stroke-width="0.5" stroke-linecap="butt"/><path d="M62.37424,52.84493c0,-1.31122 1.06295,-2.37417 2.37417,-2.37417c1.31122,0 2.37417,1.06295 2.37417,2.37417c0,1.31122 -1.06295,2.37417 -2.37417,2.37417c-1.31122,0 -2.37417,-1.06295 -2.37417,-2.37417z" fill="#000000" stroke="none" stroke-width="0.5" stroke-linecap="butt"/></g></g></svg>