<svg version="1.1" xmlns="http://www.w3.org/2000/svg" xmlns:xlink="http://www.w3.org/1999/xlink" width="41.68884" height="11.91906" viewBox="0,0,41.68884,11.91906"><g transform="translate(-208.40797,-187.40968)"><g data-paper-data="{&quot;isPaintingLayer&quot;:true}" fill-rule="nonzero" stroke="#000000" stroke-width="0" stroke-linecap="butt" stroke-linejoin="miter" stroke-miterlimit="10" stroke-dasharray="" stroke-dashoffset="0" style="mix-blend-mode: normal"><path d="M208.40843,193.29849c-0.02603,-1.50852 0.99368,-1.02698 18.71431,-1.18478c10.33259,0.00703 18.76342,0.1069 18.70325,1.21023c0.01584,1.64897 -8.38175,1.19178 -18.71432,1.18478c-16.75552,-0.36 -18.72324,0.568 -18.70325,-1.21023z" data-paper-data="{&quot;index&quot;:null}" fill="#d99e82"/><path d="M231.26984,195.13509c-1.05416,2.81092 -4.137,4.25398 -6.88571,3.22316c-0.24162,-0.09061 -3.5758,0.87305 -4.64098,0.30488c-0.80281,-0.44293 1.0093,-2.97209 1.1608,-3.60845c0.25246,-1.61003 -0.21087,-1.99181 0.41198,-3.65257c0.18202,-0.48539 -1.75474,-1.89843 -0.98725,-2.50016c1.41953,-1.11293 6.08887,-1.39207 7.87296,-0.72299c2.74871,1.03084 4.12238,4.14519 3.06821,6.95613z" data-paper-data="{&quot;index&quot;:null}" fill="#fcb1e3"/><path d="M239.7252,190.29842c0.38884,1.53112 0.39548,3.00319 0.01625,4.40932c-0.3909,1.44933 -0.7415,2.68895 -2.14571,3.48902c-2.76659,1.57632 -6.86816,0.3501 -7.80062,-2.15682c-0.21928,-0.58931 -0.37758,-1.28771 -0.42335,-1.74765c-0.06406,-0.64368 -0.08626,-0.70561 0.05955,-1.98222c0.40839,-1.96637 0.86566,-3.15742 2.58184,-4.13524c2.76659,-1.57632 6.17044,-0.64389 7.71203,2.12361z" data-paper-data="{&quot;index&quot;:null}" fill="#ffd983"/><path d="M237.48058,197.37203c-0.84097,-1.86647 -0.55457,-2.67527 -0.28372,-4.15826c0.44225,-2.05867 1.28473,-2.86014 3.23309,-3.56782c0.73074,-0.26541 2.54233,-0.78231 3.56305,-0.89736c1.18999,-0.11592 2.22728,0.19079 3.08658,0.8059c0.77137,0.55215 0.99764,0.7165 2.07917,2.26835c0.86105,1.47068 1.47426,3.75506 0.246,5.55107c-1.18245,1.72903 -3.61975,1.95482 -6.10204,1.95482c-2.73541,0 -4.93977,-0.20655 -5.82214,-1.9567z" data-paper-data="{&quot;index&quot;:null}" fill="#a6d388"/><path d="M225.11777,188.55998z" data-paper-data="{&quot;index&quot;:null}" fill="#000000"/></g></g></svg>