<svg version="1.1" xmlns="http://www.w3.org/2000/svg" xmlns:xlink="http://www.w3.org/1999/xlink" width="24.84591" height="34.4845" viewBox="0,0,24.84591,34.4845"><g transform="translate(-225.2509,-164.84423)"><g data-paper-data="{&quot;isPaintingLayer&quot;:true}" fill-rule="nonzero" stroke="#000000" stroke-width="0" stroke-linecap="butt" stroke-linejoin="miter" stroke-miterlimit="10" stroke-dasharray="" stroke-dashoffset="0" style="mix-blend-mode: normal"><path d="M225.75045,165.03084c1.28455,-0.79137 1.39006,0.33138 10.5589,15.49641c5.26098,8.89294 9.47268,16.19709 8.49278,16.70775c-1.41057,0.85418 -5.29791,-6.60349 -10.5589,-15.49642c-8.23141,-14.59866 -10.03282,-15.8185 -8.49278,-16.70774z" data-paper-data="{&quot;index&quot;:null}" fill="#d99e82"/><path d="M235.82396,185.63524c-2.95567,0.52594 -5.76864,-1.39069 -6.28294,-4.28093c-0.04521,-0.25406 -2.57388,-2.6313 -2.62804,-3.83733c-0.02817,-0.91647 3.07144,-0.6467 3.69615,-0.84074c1.51384,-0.60352 1.60611,-1.19673 3.35239,-1.50747c0.51038,-0.09082 0.73879,-2.47737 1.64771,-2.12381c1.68108,0.65393 4.30142,4.52878 4.63524,6.40474c0.5143,2.89024 -1.46483,5.65959 -4.4205,6.18553z" data-paper-data="{&quot;index&quot;:null}" fill="#fcb1e3"/><path d="M244.29519,190.44408c-1.11905,1.11501 -2.38211,1.87112 -3.78516,2.26163c-1.44615,0.4025 -2.69134,0.73276 -4.09546,-0.06748c-2.7664,-1.57662 -3.80224,-5.73038 -2.1208,-7.81049c0.39521,-0.48905 0.91537,-0.98124 1.28774,-1.25509c0.52112,-0.38323 0.56309,-0.4339 1.73571,-0.95921c1.89989,-0.65101 3.15767,-0.86474 4.87373,0.11328c2.7664,1.57662 3.69933,4.98035 2.10422,7.71734z" data-paper-data="{&quot;index&quot;:null}" fill="#ffd983"/><path d="M237.48058,197.37203c-0.84097,-1.86647 -0.55457,-2.67527 -0.28372,-4.15826c0.44225,-2.05867 1.28473,-2.86014 3.23309,-3.56782c0.73074,-0.26541 2.54233,-0.78231 3.56305,-0.89736c1.18999,-0.11592 2.22728,0.19079 3.08658,0.8059c0.77137,0.55215 0.99764,0.7165 2.07917,2.26835c0.86105,1.47068 1.47426,3.75506 0.246,5.55107c-1.18245,1.72903 -3.61975,1.95482 -6.10204,1.95482c-2.73541,0 -4.93977,-0.20655 -5.82214,-1.9567z" data-paper-data="{&quot;index&quot;:null}" fill="#a6d388"/><path d="M238.34468,176.9908z" data-paper-data="{&quot;index&quot;:null}" fill="#000000"/></g></g></svg>