<svg version="1.1" xmlns="http://www.w3.org/2000/svg" xmlns:xlink="http://www.w3.org/1999/xlink" width="675.85001" height="62.75" viewBox="0,0,675.85001,62.75"><g transform="translate(120.72501,-148.625)"><g data-paper-data="{&quot;isPaintingLayer&quot;:true}" fill-rule="nonzero" stroke-linejoin="miter" stroke-miterlimit="10" stroke-dasharray="" stroke-dashoffset="0" style="mix-blend-mode: normal"><path d="M-120.72501,211.375v-62.75h675.85001v62.75z" fill-opacity="0.01176" fill="#000000" stroke="none" stroke-width="0" stroke-linecap="butt"/><path d="M187.79769,181.24222c1.30299,-0.14223 2.70122,-0.08248 4.12497,0.21071c5.43652,1.11951 9.18647,5.21861 8.37575,9.15559c-0.81072,3.93698 -5.87511,6.221 -11.31162,5.10149c-2.77069,-0.57055 -5.10332,-1.91501 -6.61742,-3.61751" fill="none" stroke="#000000" stroke-width="5.5" stroke-linecap="butt"/><path d="M194.63247,182.13005c-1.08251,0.05205 -2.21879,-0.03228 -3.3718,-0.26972c-5.43652,-1.11951 -9.18647,-5.21861 -8.37575,-9.15559c0.81072,-3.93698 5.87511,-6.221 11.31162,-5.10149c1.91944,0.39526 3.62864,1.16194 5.00112,2.16176" fill="none" stroke="#000000" stroke-width="5.5" stroke-linecap="butt"/><path d="M207.875,166.375h19.75" fill="none" stroke="#000000" stroke-width="5.5" stroke-linecap="round"/><path d="M217.125,196.125v-28.5" fill="none" stroke="#000000" stroke-width="5.5" stroke-linecap="round"/><path d="M230.875,195.875l9.32851,-26.25l10.84711,26.03305" fill="none" stroke="#000000" stroke-width="5.5" stroke-linecap="round"/><path d="M237.31715,183.85847h6.50826" fill="none" stroke="#000000" stroke-width="5.5" stroke-linecap="round"/><path d="M260.125,163.875v31.75" fill="none" stroke="#000000" stroke-width="5.5" stroke-linecap="round"/><path d="M273.66071,196.375l-11.53571,-12.75" fill="none" stroke="#000000" stroke-width="5.5" stroke-linecap="round"/><path d="M263.125,163.625c5.79899,0 10.5,4.70101 10.5,10.5c0,5.49967 -4.22825,10.01178 -9.61131,10.46292c0.84933,-0.20816 1.65605,-0.52482 2.40464,-0.93444c4.03472,-1.28757 6.95667,-5.06679 6.95667,-9.52847c0,-0.04172 -0.00025,-0.08339 -0.00077,-0.125c0.00051,-0.04161 0.00077,-0.08328 0.00077,-0.125c0,-5.52285 -4.47715,-10 -10,-10c-0.22431,0 -0.44689,0.00738 -0.66752,0.02192c-0.00033,-0.08834 -0.00119,-0.17624 -0.0026,-0.26368c0.13936,-0.00548 0.27942,-0.00825 0.42012,-0.00825z" fill-opacity="0.01176" fill="#000000" stroke="#000000" stroke-width="5.5" stroke-linecap="butt"/><path d="M302.375,166.125h-19.75" fill="none" stroke="#000000" stroke-width="5.5" stroke-linecap="round"/><path d="M291.875,195.875v-28.5" fill="none" stroke="#000000" stroke-width="5.5" stroke-linecap="round"/></g></g></svg>