<svg version="1.1" xmlns="http://www.w3.org/2000/svg" xmlns:xlink="http://www.w3.org/1999/xlink" width="38.63644" height="20.27445" viewBox="0,0,38.63644,20.27445"><g transform="translate(-211.46037,-179.05427)"><g data-paper-data="{&quot;isPaintingLayer&quot;:true}" fill-rule="nonzero" stroke="#000000" stroke-width="0" stroke-linecap="butt" stroke-linejoin="miter" stroke-miterlimit="10" stroke-dasharray="" stroke-dashoffset="0" style="mix-blend-mode: normal"><path d="M211.58425,179.61583c0.58492,-1.39075 1.3236,-0.53867 17.60105,6.46778c9.45113,4.17595 17.12475,7.66943 16.62447,8.65467c-0.65092,1.51514 -8.14994,-2.29186 -17.60106,-6.46778c-15.18546,-7.09076 -17.36033,-7.03571 -16.62447,-8.65466z" data-paper-data="{&quot;index&quot;:null}" fill="#d99e82"/><path d="M231.76053,190.52155c-2.09882,2.14651 -5.50183,2.22284 -7.60083,0.17048c-0.18451,-0.18041 -3.62404,-0.64414 -4.36937,-1.59383c-0.55581,-0.72923 2.12281,-2.31208 2.51822,-2.83319c0.88069,-1.37125 0.61082,-1.90753 1.85087,-3.17573c0.36241,-0.37066 -0.83945,-2.44509 0.10559,-2.68595c1.74792,-0.44547 6.13285,1.18335 7.49524,2.51547c2.099,2.05237 2.09912,5.45622 0.00029,7.60274z" data-paper-data="{&quot;index&quot;:null}" fill="#fcb1e3"/><path d="M241.44864,189.50816c-0.26208,1.55783 -0.85003,2.9074 -1.76443,4.04094c-0.94251,1.16835 -1.76352,2.16108 -3.37118,2.32647c-3.16743,0.32587 -6.42541,-2.45119 -6.26696,-5.12121c0.03717,-0.62768 0.17416,-1.33057 0.31788,-1.76987c0.20113,-0.6148 0.20581,-0.68042 0.85437,-1.78963c1.16715,-1.63436 2.06617,-2.53961 4.03099,-2.74175c3.16743,-0.32587 5.90557,1.90083 6.1993,5.05507z" data-paper-data="{&quot;index&quot;:null}" fill="#ffd983"/><path d="M237.48058,197.37203c-0.84097,-1.86647 -0.55457,-2.67527 -0.28372,-4.15826c0.44225,-2.05867 1.28473,-2.86014 3.23309,-3.56782c0.73074,-0.26541 2.54233,-0.78231 3.56305,-0.89736c1.18999,-0.11592 2.22728,0.19079 3.08658,0.8059c0.77137,0.55215 0.99764,0.7165 2.07917,2.26835c0.86105,1.47068 1.47426,3.75506 0.246,5.55107c-1.18245,1.72903 -3.61975,1.95482 -6.10204,1.95482c-2.73541,0 -4.93977,-0.20655 -5.82214,-1.9567z" data-paper-data="{&quot;index&quot;:null}" fill="#a6d388"/><path d="M228.78486,182.02299z" data-paper-data="{&quot;index&quot;:null}" fill="#000000"/></g></g></svg>