<svg version="1.1" xmlns="http://www.w3.org/2000/svg" xmlns:xlink="http://www.w3.org/1999/xlink" width="96.6728" height="118.82941" viewBox="0,0,96.6728,118.82941"><g transform="translate(-191.6636,-120.58529)"><g data-paper-data="{&quot;isPaintingLayer&quot;:true}" fill-rule="nonzero" stroke="#000000" stroke-width="3.5" stroke-linejoin="miter" stroke-miterlimit="10" stroke-dasharray="" stroke-dashoffset="0" style="mix-blend-mode: normal"><path d="M206.5864,237.66471c0,0 -12.67266,-15.03033 -11.32212,-27.83924c1.39861,-13.26478 9.82212,-24.47322 9.82212,-33.46076c0,-12.55049 -5.5,-34.7 -5.5,-34.7h79.5c0,0 7.5,20.75449 7.5,33.7c0,7.86174 -9.99624,21.62934 -11.65213,33.90529c-2.05143,15.20835 8.65213,28.39471 8.65213,28.39471z" fill-opacity="0.01176" fill="#ffffff" stroke-linecap="butt"/><path d="M215.78328,164.08332l-0.29687,-15.37957l1.1875,7.42912l5.9375,-0.39101l0.29687,-6.90777l0.29688,15.50991" fill="none" stroke-linecap="round"/><path d="M235.08015,150.47133l-0.33343,10.79719c0,0 0.53116,3.2724 -3.66782,3.17565c-5.20147,-0.11985 -4.00125,-3.17565 -4.00125,-3.17565l0.16672,-11.11477" fill="none" stroke-linecap="round"/><path d="M239.68171,164.26795v-11.96913l4.30469,5.24962l4.30469,-6.19455l-0.11957,12.91406" fill="none" stroke-linecap="round"/><path d="M257.84593,158.07526h-3.23339l-3.20055,6.13557l4.63453,-13.04135l5.38899,12.93357z" fill="none" stroke-linecap="round"/><path d="M272.48641,149.99622l-0.4917,13.08125l-7.37549,-10.2712v10.7557" fill="none" stroke-linecap="round"/><path d="M198.9136,141.3647v-19.02941h82v19.02941z" fill-opacity="0.01176" fill="#ffffff" stroke-linecap="butt"/><path d="M193.4136,135.8647v-9h5v9z" fill-opacity="0.01176" fill="#ffffff" stroke-linecap="butt"/><path d="M281.41361,136.3647v-9h5v9z" fill-opacity="0.01176" fill="#ffffff" stroke-linecap="butt"/></g></g></svg>