<svg version="1.1" xmlns="http://www.w3.org/2000/svg" xmlns:xlink="http://www.w3.org/1999/xlink" width="428.05642" height="87.27494" viewBox="0,0,428.05642,87.27494"><g transform="translate(-26.6171,-27.44159)"><g data-paper-data="{&quot;isPaintingLayer&quot;:true}" fill-rule="nonzero" stroke="#000000" stroke-width="5.5" stroke-linejoin="miter" stroke-miterlimit="10" stroke-dasharray="" stroke-dashoffset="0" style="mix-blend-mode: normal"><path d="M43.65649,51.43022h-7.26095l-7.1872,13.77813l10.40736,-29.28584l12.10159,29.0438z" fill="none" stroke-linecap="round"/><path d="M132.73242,49.59809c0,8.68462 -9.01137,15.80779 -20.47567,16.50398c-0.07346,-0.14734 -0.12313,-0.29565 -0.13313,-0.44528c-0.13208,-1.97433 -0.21377,-4.19576 -0.27462,-6.49428c0.67657,-1.44095 1.2217,-2.88297 1.25578,-4.29539c0.16047,-6.64762 0.80283,-13.32712 -0.41861,-19.94465c0.17843,-0.57567 0.36342,-1.16168 0.54179,-1.75354c10.99796,1.02746 19.50448,7.99134 19.50448,16.42917z" fill-opacity="0.01176" fill="#000000" stroke-linecap="butt"/><path d="M60.2,31.3v33.66667" fill="none" stroke-linecap="round"/><path d="M61.25288,48.96634c0.63642,0.10961 1.29349,0.16699 1.96546,0.16699c5.73439,0 10.38304,-4.17867 10.38304,-9.33333c0,-5.15466 -4.64865,-9.33333 -10.38304,-9.33333c-0.34179,0 -0.67972,0.01485 -1.01304,0.04386l-1.74815,17.23309c0.42146,-0.02709 0.84875,-0.04095 1.28091,-0.04095c7.25074,0 13.12861,3.90198 13.12861,8.71533c0,4.81335 -5.87788,8.71534 -13.12861,8.71534c-0.84966,0 -1.68047,-0.05358 -2.48518,-0.15593z" fill="none" stroke-linecap="butt"/><path d="M104.33835,63.27258c-1.37553,0.98349 -2.91951,1.72863 -4.59619,2.17141c-7.94604,2.0984 -15.86341,-3.3887 -17.68394,-12.25578c-1.82053,-8.86708 3.14518,-17.75636 11.09122,-19.85476c2.18708,-0.57756 4.37199,-0.58047 6.4282,-0.0964" fill="none" stroke-linecap="butt"/><path d="M157.35115,66.45429l-14.89697,-0.9343l0.35469,-28.96346l13.12353,-1.8686l-13.06573,2.11206l-0.05779,13.45968h13.8329" fill="none" stroke-linecap="round"/><path d="M338.43775,64.40188h-16.83682l4.29174,-33.16136" fill="none" stroke-linecap="round"/><path d="M428.02437,49.61703c0,9.09828 -4.81963,16.47389 -10.76495,16.47389c-5.94532,0 -10.76495,-7.37562 -10.76495,-16.47389c0,-9.09828 4.81963,-16.47389 10.76495,-16.47389c5.94532,0 10.76495,7.37562 10.76495,16.47389z" fill-opacity="0.01176" fill="#000000" stroke-linecap="butt"/><path d="M171.26314,64.37909l-0.47562,-0.02983l0.35469,-28.96345l13.12353,-1.8686l-12.7324,0.61612l-0.39114,14.95562h13.83291" fill="none" stroke-linecap="round"/><path d="M204.44718,56.09772l6.12807,-0.32216l-0.20811,0.20697c-1.53885,5.58216 -4.74343,9.42045 -8.44729,9.42045c-5.20243,0 -9.41984,-7.57251 -9.41984,-16.91367c0,-9.34117 4.21741,-16.91368 9.41984,-16.91368c2.95138,0 5.58575,2.43713 7.31292,6.25171" fill="none" stroke-linecap="round"/><path d="M219.2,65.92197l-0.66666,-34.53659l2.66666,16.68293l13.33334,-0.87805l0.66666,-15.51219l0.66667,34.82927" fill="none" stroke-linecap="round"/><path d="M247.86668,66.80001l-0.33334,-36" fill="none" stroke-linecap="round"/><path d="M286.53334,31.67806l-24.37771,0.30044l11.53,2.10306l0.32943,21.33107l0.32943,0.30042c0,0 -0.76428,9.614 -4.98218,9.614c-0.94838,0 -5.47708,1.65595 -8.51745,-2.0438c-4.35769,-5.30277 -1.36611,-7.48571 -2.15452,-7.95796" fill="none" stroke-linecap="round"/><path d="M295.86667,31.09269v33.95122" fill="none" stroke-linecap="round"/><path d="M313.2,32.84878l-15.66666,16.39025l15,15.21951l-16,-16.99188z" fill="none" stroke-linecap="round"/><path d="M347.86667,65.33659v-26.87804l9.66667,11.78861l9.66667,-13.91056l-0.26852,29" fill="none" stroke-linecap="round"/><path d="M397.53334,34.2878l-1.10417,29.37544l-16.5625,-23.06515v24.15314" fill="none" stroke-linecap="round"/><path d="M436.86667,34.3122l-0.33333,32.19512" fill="none" stroke-linecap="round"/><path d="M438.31499,34.06964c0.80343,-0.05714 1.6249,-0.04696 2.45605,0.03637c6.9019,0.69192 11.85815,6.1656 11.07013,12.22579c-0.78803,6.0602 -7.02192,10.41204 -13.92382,9.72012c-0.69637,-0.06981 -1.37293,-0.1883 -2.02578,-0.35116" fill="none" stroke-linecap="butt"/><path d="M89.86667,91.01989l2.80136,0.77916c1.59192,-0.1569 3.30019,-0.09099 5.03964,0.23243c6.64201,1.23493 11.22347,5.75665 10.23298,10.09953c-0.99049,4.34289 -7.17786,6.86239 -13.81985,5.62746c-3.38506,-0.62937 -6.23493,-2.11244 -8.08476,-3.99047" fill="none" stroke-linecap="butt"/><path d="M95.53333,92.82569l4.15169,-0.04727c-1.32254,0.05741 -2.71077,-0.03561 -4.11945,-0.29753c-6.64201,-1.23494 -11.22347,-5.75666 -10.23298,-10.09954c0.99048,-4.34288 7.17785,-6.86238 13.81984,-5.62745c2.34505,0.43602 4.43325,1.28174 6.11006,2.38464" fill="none" stroke-linecap="butt"/><path d="M123.01955,109.69126v-30.0755l-14.15287,-1.53733l3.34168,0.21822h23.08333" fill="none" stroke-linecap="round"/><path d="M61.79169,107.9629v-32.19665l2.24629,20.02783l12.95611,12.92936" fill="none" stroke-linecap="round"/><path d="M63.16108,76.51273c6.51302,0 11.79287,4.76714 11.79287,10.64771c0,5.57704 -4.74888,10.15262 -10.79476,10.61011c0.95391,-0.21109 1.85996,-0.53221 2.70073,-0.94759c4.53152,-1.30568 7.81325,-5.13807 7.81325,-9.66251c0,-0.04231 -0.00028,-0.08456 -0.00087,-0.12676c0.00057,-0.0422 0.00087,-0.08446 0.00087,-0.12676c0,-5.60054 -5.02842,-10.14067 -11.23131,-10.14067c-0.25193,0 -0.50192,0.00748 -0.74971,0.02222c-0.00037,-0.08958 -0.00133,-0.17872 -0.00292,-0.26739c0.15652,-0.00556 0.31383,-0.00837 0.47185,-0.00837z" fill-opacity="0.01176" fill="#000000" stroke-linecap="butt"/><path d="M51.35771,91.4086c0,9.35572 -4.81963,16.94002 -10.76495,16.94002c-5.94532,0 -10.76495,-7.58431 -10.76495,-16.94002c0,-9.35572 4.81963,-16.94002 10.76495,-16.94002c5.94532,0 10.76495,7.58431 10.76495,16.94002z" fill-opacity="0.01176" fill="#000000" stroke-linecap="butt"/><path d="M43.53334,98.54401l10,8.42701" fill="none" stroke-linecap="round"/><path d="M161.53333,79.35472l-0.74877,24.24634c0,0 1.19277,7.34854 -8.23649,7.13128c-11.6805,-0.26914 -8.98526,-7.13128 -8.98526,-7.13128l0.37438,-24.95947" fill="none" stroke-linecap="round"/><path d="M192.00315,77.65554l-9.65502,34.00492l-0.1681,-0.02357l-10.98003,-34.31088" fill="none" stroke-linecap="round"/><path d="M242.03422,78.95697l-8.53207,30.04993l-0.3117,-0.03631l-9.69883,-30.30734l-1.74114,0.10347l-8.52479,30.02427l-0.33228,-0.0522l-9.68553,-30.26579" fill="none" stroke-linecap="round"/><path d="M271.10721,109.86278l-19.62126,-31.15556" fill="none" stroke-linecap="round"/><path d="M271.7838,79.62356l-19.62126,29.32288" fill="none" stroke-linecap="round"/><path d="M291.19651,92.49935l-12.53081,-12.85681" fill="none" stroke-linecap="round"/><path d="M291.48131,111.01317l1.13916,-19.79949l10.82207,-12.59968" fill="none" stroke-linecap="round"/><path d="M311.4167,79.64254l22.7833,-0.51427l-1.42395,1.28568l-20.22018,29.8278l20.50497,-0.51427" fill="none" stroke-linecap="round"/></g></g></svg>