<svg version="1.1" xmlns="http://www.w3.org/2000/svg" xmlns:xlink="http://www.w3.org/1999/xlink" width="88.63583" height="36.89662" viewBox="0,0,88.63583,36.89662"><g transform="translate(-198.63999,-150.9208)"><g data-paper-data="{&quot;isPaintingLayer&quot;:true}" fill-rule="nonzero" stroke="#000000" stroke-width="5.5" stroke-linejoin="miter" stroke-miterlimit="10" stroke-dasharray="" stroke-dashoffset="0" style="mix-blend-mode: normal"><path d="M215.8978,184.78957h-14.17015l3.612,-31.11877" fill="none" stroke-linecap="round"/><path d="M239.51473,169.78588c0,8.43976 -4.22946,15.28154 -9.44677,15.28154c-5.21731,0 -9.44677,-6.84178 -9.44677,-15.28154c0,-8.43976 4.22946,-15.28154 9.44677,-15.28154c5.21731,0 9.44677,6.84178 9.44677,15.28154z" fill-opacity="0.01176" fill="#000000" stroke-linecap="butt"/><path d="M243.00395,184.85513l9.32851,-26.25l10.84711,26.03305" fill="none" stroke-linecap="round"/><path d="M255.95436,172.8386h-6.50826" fill="none" stroke-linecap="round"/><path d="M271.46704,154.50434v30.00739" fill="none" stroke-linecap="round"/><path d="" fill-opacity="0.01176" fill="#000000" stroke-linecap="butt"/><path d="M284.52581,169.79408c0,7.7121 -5.70314,14.03761 -12.9587,14.65584c-0.04649,-0.13084 -0.07793,-0.26254 -0.08426,-0.39542c-0.08359,-1.75324 -0.13529,-3.72591 -0.1738,-5.76704c0.42819,-1.27959 0.77319,-2.56013 0.79476,-3.81439c0.10156,-5.90321 0.5081,-11.83473 -0.26493,-17.71122c0.11293,-0.51121 0.23,-1.0316 0.34289,-1.55718c6.96042,0.91241 12.34405,7.09646 12.34405,14.58941z" fill-opacity="0.01176" fill="#000000" stroke-linecap="butt"/></g></g></svg>