<svg version="1.1" xmlns="http://www.w3.org/2000/svg" xmlns:xlink="http://www.w3.org/1999/xlink" width="309.7269" height="149.56668" viewBox="0,0,309.7269,149.56668"><g transform="translate(-83.7731,-103.18332)"><g data-paper-data="{&quot;isPaintingLayer&quot;:true}" fill-rule="nonzero" stroke-linejoin="miter" stroke-miterlimit="10" stroke-dasharray="" stroke-dashoffset="0" style="mix-blend-mode: normal"><path d="M155.5,114.68333l-20,98" fill="none" stroke="#000000" stroke-width="15" stroke-linecap="round"/><path d="M159.70693,115.76067c16.09088,1.13179 28.79307,14.54385 28.79307,30.92265c0,17.12082 -13.87918,31 -31,31c-5.70368,0 -11.04758,-1.54037 -15.63841,-4.22779" fill="none" stroke="#000000" stroke-width="15" stroke-linecap="butt"/><path d="M175.5,212.68334l-26,-30" fill="none" stroke="#000000" stroke-width="15" stroke-linecap="round"/><path d="M211.5,110.68333l-11,104" fill="none" stroke="#000000" stroke-width="15" stroke-linecap="round"/><path d="M214.34597,110.92517c2.13983,-0.17332 4.32767,-0.14244 6.54131,0.1103c18.38212,2.09878 31.58236,18.70183 29.48358,37.08394c-2.09878,18.38212 -18.70182,31.58236 -37.08394,29.48358c-1.85467,-0.21176 -3.65659,-0.57117 -5.39536,-1.06516" fill="none" stroke="#000000" stroke-width="15" stroke-linecap="butt"/><path d="M313.2686,184.99924c-4.11417,16.99698 -12.68177,28.68409 -22.58423,28.68409c-13.90894,0 -25.18437,-23.05733 -25.18437,-51.5c0,-28.44267 11.27543,-51.5 25.18437,-51.5c7.89066,0 14.93375,7.42075 19.55142,19.03566" fill="none" stroke="#000000" stroke-width="15" stroke-linecap="butt"/><path d="M297.44133,185.34999l16.38368,-0.98095" fill="none" stroke="#000000" stroke-width="15" stroke-linecap="round"/><path d="M239.76666,230.95073l7.13076,18.79927" fill="none" stroke="#000000" stroke-width="6" stroke-linecap="round"/><path d="M254.19023,229.16805l-6.96869,19.12339" fill="none" stroke="#000000" stroke-width="6" stroke-linecap="round"/><path d="M271.34125,238.81077c0,6.04157 -2.97487,10.93922 -6.64457,10.93922c-3.66969,0 -6.64456,-4.89765 -6.64456,-10.93922c0,-6.04157 2.97487,-10.93923 6.64457,-10.93923c3.66969,0 6.64457,4.89766 6.64457,10.93923z" fill="none" stroke="#000000" stroke-width="6" stroke-linecap="butt"/><path d="M291.30257,238.32458c0,6.04156 -2.97488,10.93923 -6.64457,10.93923c-3.66969,0 -6.64456,-4.89766 -6.64456,-10.93923c0,-6.04156 2.97487,-10.93922 6.64457,-10.93922c3.66969,0 6.64457,4.89766 6.64457,10.93922z" fill="none" stroke="#000000" stroke-width="6" stroke-linecap="butt"/><path d="M309.77771,238.16252c0,6.04156 -2.97488,10.93923 -6.64457,10.93923c-3.66969,0 -6.64456,-4.89766 -6.64456,-10.93923c0,-6.04156 2.97487,-10.93922 6.64457,-10.93922c3.66969,0 6.64457,4.89766 6.64457,10.93922z" fill="none" stroke="#000000" stroke-width="6" stroke-linecap="butt"/><path d="M272.26666,250.08333c0,-1.38071 1.11929,-2.5 2.5,-2.5c1.38071,0 2.5,1.11929 2.5,2.5c0,1.38071 -1.11929,2.5 -2.5,2.5c-1.38071,0 -2.5,-1.11929 -2.5,-2.5z" fill="#000000" stroke="none" stroke-width="0.5" stroke-linecap="butt"/><path d="M319.09999,227.41666v21" fill="none" stroke="#000000" stroke-width="6" stroke-linecap="round"/><path d="M318.09999,107.41666l12.66667,41.33334l19,12.66666l-20.33333,16.66667l-9,40.33333" fill="none" stroke="#000000" stroke-width="6" stroke-linecap="round"/><path d="M390.5,161.68332h-280.25686" fill="none" stroke="#000000" stroke-width="6" stroke-linecap="round"/><path d="M326.5,178.68332l-209.7186,-0.73844l-27.2814,-19.26156l26.94634,-14.21333l208.05366,2.21334" fill="none" stroke="#000000" stroke-width="6" stroke-linecap="round"/></g></g></svg>