<svg version="1.1" xmlns="http://www.w3.org/2000/svg" xmlns:xlink="http://www.w3.org/1999/xlink" width="20.19362" height="38.65746" viewBox="0,0,20.19362,38.65746"><g transform="translate(-229.90319,-160.67127)"><g data-paper-data="{&quot;isPaintingLayer&quot;:true}" fill-rule="nonzero" stroke="#000000" stroke-width="0" stroke-linecap="butt" stroke-linejoin="miter" stroke-miterlimit="10" stroke-dasharray="" stroke-dashoffset="0" style="mix-blend-mode: normal"><path d="M230.95471,160.77501c1.40333,-0.55409 1.31051,0.56978 7.68075,17.10658c3.62164,9.67708 6.48858,17.60613 5.43437,17.93722c-1.5384,0.59385 -4.0591,-7.42951 -7.68075,-17.10659c-5.54654,-15.81496 -7.10638,-17.33152 -5.43437,-17.93721z" data-paper-data="{&quot;index&quot;:null}" fill="#d99e82"/><path d="M237.2627,182.82555c-3.0021,0 -5.43579,-2.3798 -5.43579,-5.31544c0,-0.25805 -2.07309,-3.04153 -1.91513,-4.2384c0.13282,-0.90723 3.13724,-0.09861 3.78628,-0.1802c1.59616,-0.32897 1.79093,-0.89684 3.56464,-0.89684c0.5184,0 1.16138,-2.30963 1.9943,-1.8023c1.54052,0.93833 3.44149,5.21231 3.44149,7.11774c0,2.93564 -2.43369,5.31543 -5.43579,5.31543z" data-paper-data="{&quot;index&quot;:null}" fill="#fcb1e3"/><path d="M244.76045,189.04411c-1.29708,0.90172 -2.67307,1.42486 -4.12284,1.56352c-1.4943,0.14292 -2.77809,0.24993 -4.0203,-0.78393c-2.4474,-2.03689 -2.73952,-6.30788 -0.71967,-8.06124c0.47478,-0.41225 1.07312,-0.8057 1.48771,-1.01008c0.5802,-0.28601 0.6304,-0.32854 1.87691,-0.64029c1.98456,-0.3081 3.26033,-0.29817 4.77851,0.96537c2.4474,2.03689 2.7696,5.55142 0.71966,7.96663z" data-paper-data="{&quot;index&quot;:null}" fill="#ffd983"/><path d="M237.48058,197.37203c-0.84097,-1.86647 -0.55457,-2.67527 -0.28372,-4.15826c0.44225,-2.05867 1.28473,-2.86014 3.23309,-3.56782c0.73074,-0.26541 2.54233,-0.78231 3.56305,-0.89736c1.18999,-0.11592 2.22728,0.19079 3.08658,0.8059c0.77137,0.55215 0.99764,0.7165 2.07917,2.26835c0.86105,1.47068 1.47426,3.75506 0.246,5.55107c-1.18245,1.72903 -3.61975,1.95482 -6.10204,1.95482c-2.73541,0 -4.93977,-0.20655 -5.82214,-1.9567z" data-paper-data="{&quot;index&quot;:null}" fill="#a6d388"/><path d="M241.25887,174.75641z" data-paper-data="{&quot;index&quot;:null}" fill="#000000"/></g></g></svg>