<svg version="1.1" xmlns="http://www.w3.org/2000/svg" xmlns:xlink="http://www.w3.org/1999/xlink" width="276.88203" height="51.64074" viewBox="0,0,276.88203,51.64074"><g transform="translate(-5.68104,-3.92466)"><g data-paper-data="{&quot;isPaintingLayer&quot;:true}" fill-rule="nonzero" stroke-linejoin="miter" stroke-miterlimit="10" stroke-dasharray="" stroke-dashoffset="0" style="mix-blend-mode: normal"><path d="M22.21234,27.1146c-0.86393,0.6407 -1.83764,1.13167 -2.89908,1.43181c-5.03033,1.42243 -10.12632,-1.9797 -11.38222,-7.59887c-1.2559,-5.61917 1.80389,-11.32751 6.83422,-12.74994c1.38456,-0.39151 2.77409,-0.41752 4.08715,-0.13241" fill="none" stroke="#000000" stroke-width="4.5" stroke-linecap="butt"/><path d="M24.70864,29.39283l-0.80596,-21.95729l1.88046,10.58055l8.47006,-0.70589l0.25242,-9.87285l0.80921,22.14342" fill="none" stroke="#000000" stroke-width="4.5" stroke-linecap="round"/><path d="M47.76722,21.68107l-4.61783,0.0803l-4.41854,8.84214l6.29499,-18.74039l8.01762,18.3375z" fill="none" stroke="#000000" stroke-width="4.5" stroke-linecap="round"/><path d="M56.2812,30.74919l-0.37754,-21.70963l1.66345,13.47956l8.39147,8.57474l-3.13209,-4.7277" fill="none" stroke="#000000" stroke-width="4.5" stroke-linecap="round"/><path d="M56.77141,10.10351c4.14217,-0.07204 7.55596,3.08397 7.62491,7.04913c0.0654,3.7605 -2.90115,6.89826 -6.74086,7.2736c0.60419,-0.15288 1.17666,-0.37943 1.7065,-0.66881c2.86665,-0.93051 4.90884,-3.55093 4.85578,-6.60167c-0.0005,-0.02853 -0.00117,-0.05701 -0.00204,-0.08546c-0.00013,-0.02846 -0.00044,-0.05696 -0.00094,-0.08548c-0.06568,-3.77634 -3.31689,-6.78206 -7.26183,-6.71345c-0.16022,0.00279 -0.31913,0.0106 -0.47654,0.02327c-0.00128,-0.0604 -0.00294,-0.12049 -0.00499,-0.18026c0.09948,-0.00548 0.19949,-0.00912 0.29999,-0.01086z" fill-opacity="0.01176" fill="#000000" stroke="#000000" stroke-width="4.5" stroke-linecap="butt"/><path d="M78.29438,21.15019l-4.61783,0.0803l-4.41854,8.84214l6.29499,-18.74039l8.01762,18.3375z" fill="none" stroke="#000000" stroke-width="4.5" stroke-linecap="round"/><path d="M98.55233,27.05934c-0.86393,0.6407 -1.83764,1.13167 -2.89908,1.43181c-5.03033,1.42243 -10.12632,-1.9797 -11.38222,-7.59887c-1.2559,-5.61917 1.80389,-11.32751 6.83422,-12.74994c1.38456,-0.39151 2.77409,-0.41752 4.08715,-0.13241" fill="none" stroke="#000000" stroke-width="4.5" stroke-linecap="butt"/><path d="M106.65517,29.09331l-0.33264,-19.12748l-9.01798,-0.82118l2.12766,0.10182l14.68059,-0.2553" fill="none" stroke="#000000" stroke-width="4.5" stroke-linecap="round"/><path d="M127.87297,29.84591l-9.48454,-0.42944l-0.09476,-18.42417l8.32566,-1.33354l-8.28621,1.48774l0.11212,8.56076l8.79748,-0.153" fill="none" stroke="#000000" stroke-width="4.5" stroke-linecap="round"/><path d="M133.25716,30.68288l-0.37754,-21.70963l1.66345,13.47956l8.39147,8.57474l-3.13209,-4.7277" fill="none" stroke="#000000" stroke-width="4.5" stroke-linecap="round"/><path d="M133.74738,8.76503c4.14217,-0.07204 7.55596,3.08397 7.62491,7.04913c0.0654,3.7605 -2.90115,6.89826 -6.74086,7.2736c0.60419,-0.15288 1.17666,-0.37943 1.7065,-0.66881c2.86665,-0.93051 4.90884,-3.55092 4.85578,-6.60167c-0.0005,-0.02853 -0.00117,-0.05701 -0.00204,-0.08546c-0.00013,-0.02846 -0.00044,-0.05696 -0.00094,-0.08548c-0.06568,-3.77634 -3.31689,-6.78206 -7.26183,-6.71345c-0.16022,0.00279 -0.31913,0.0106 -0.47654,0.02327c-0.00128,-0.0604 -0.00294,-0.12049 -0.00499,-0.18026c0.09948,-0.00548 0.19949,-0.00912 0.29999,-0.01086z" fill-opacity="0.01176" fill="#000000" stroke="#000000" stroke-width="4.5" stroke-linecap="butt"/><path d="M178.70823,26.93773c-0.86393,0.6407 -1.83764,1.13167 -2.89908,1.43181c-5.03033,1.42243 -10.12632,-1.9797 -11.38222,-7.59887c-1.2559,-5.61917 1.80389,-11.32751 6.83422,-12.74994c1.38456,-0.39151 2.77409,-0.41752 4.08715,-0.13241" fill="none" stroke="#000000" stroke-width="4.5" stroke-linecap="butt"/><path d="M181.59184,29.84231l-0.37754,-21.70963l1.66345,13.47956l8.39147,8.57474l-3.13209,-4.7277" fill="none" stroke="#000000" stroke-width="4.5" stroke-linecap="round"/><path d="M182.08204,9.19662c4.14217,-0.07204 7.55596,3.08397 7.62491,7.04913c0.0654,3.7605 -2.90115,6.89826 -6.74086,7.2736c0.60419,-0.15288 1.17666,-0.37943 1.7065,-0.66881c2.86665,-0.93051 4.90884,-3.55093 4.85578,-6.60167c-0.0005,-0.02853 -0.00117,-0.05701 -0.00204,-0.08546c-0.00013,-0.02846 -0.00044,-0.05696 -0.00094,-0.08548c-0.06568,-3.77634 -3.31689,-6.78206 -7.26183,-6.71345c-0.16022,0.00279 -0.31913,0.0106 -0.47654,0.02327c-0.00128,-0.0604 -0.00294,-0.12049 -0.00499,-0.18026c0.09948,-0.00548 0.19949,-0.00912 0.29999,-0.01086z" fill-opacity="0.01176" fill="#000000" stroke="#000000" stroke-width="4.5" stroke-linecap="butt"/><path d="M204.84895,29.7796l-9.48454,-0.42944l-0.09476,-18.42417l8.32566,-1.33354l-8.28621,1.48774l0.11212,8.56076l8.79748,-0.153" fill="none" stroke="#000000" stroke-width="4.5" stroke-linecap="round"/><path d="M218.2326,19.98891l-4.61783,0.0803l-4.41854,8.84214l6.29499,-18.74039l8.01762,18.3375z" fill="none" stroke="#000000" stroke-width="4.5" stroke-linecap="round"/><path d="M232.6239,29.44733l-0.33264,-19.12748l-9.01798,-0.82118l2.12766,0.10182l14.68059,-0.2553" fill="none" stroke="#000000" stroke-width="4.5" stroke-linecap="round"/><path d="M245.28441,7.03022l0.61016,22.89168" fill="none" stroke="#000000" stroke-width="4.5" stroke-linecap="round"/><path d="M264.24828,18.67134c0.10063,5.78634 -2.88299,10.53041 -6.66411,10.59616c-3.78112,0.06576 -6.92789,-4.5717 -7.02852,-10.35804c-0.10063,-5.78634 2.88299,-10.53041 6.66411,-10.59616c3.78112,-0.06576 6.92789,4.5717 7.02852,10.35804z" fill-opacity="0.01176" fill="#000000" stroke="#000000" stroke-width="4.5" stroke-linecap="butt"/><path d="M280.31307,9.27606l-0.37733,18.69447l-10.78856,-14.48584l0.26714,15.36097" fill="none" stroke="#000000" stroke-width="4.5" stroke-linecap="round"/><path d="" fill-opacity="0.01176" fill="#000000" stroke="none" stroke-width="0.5" stroke-linecap="butt"/><path d="M70.79352,42.10142c0,-1.25382 1.01642,-2.27024 2.27024,-2.27024c1.25382,0 2.27024,1.01642 2.27024,2.27024c0,1.25382 -1.01642,2.27024 -2.27024,2.27024c-1.25382,0 -2.27024,-1.01642 -2.27024,-2.27024z" fill="#000000" stroke="none" stroke-width="0.5" stroke-linecap="butt"/><path d="M70.85782,51.71837c0,-1.25382 1.01642,-2.27024 2.27024,-2.27024c1.25382,0 2.27024,1.01642 2.27024,2.27024c0,1.25382 -1.01642,2.27024 -2.27024,2.27024c-1.25382,0 -2.27024,-1.01642 -2.27024,-2.27024z" fill="#000000" stroke="none" stroke-width="0.5" stroke-linecap="butt"/><path d="M21.30584,52.42978c-0.66262,0.47376 -1.40637,0.83271 -2.21406,1.046c-3.82773,1.01084 -7.64166,-1.63239 -8.51864,-5.90381c-0.87697,-4.27141 1.51508,-8.55352 5.34282,-9.56436c1.05355,-0.27822 2.10605,-0.27962 3.09656,-0.04644" fill="none" stroke="#000000" stroke-width="3.5" stroke-linecap="butt"/><path d="M31.11859,53.8154h-8.11057l2.0674,-15.97436" fill="none" stroke="#000000" stroke-width="3.5" stroke-linecap="round"/><path d="M37.80177,47.84727h-3.49772l-3.46219,6.63714l5.01339,-14.10747l5.82953,13.99086z" fill="none" stroke="#000000" stroke-width="3.5" stroke-linecap="round"/><path d="M46.3157,45.03645l1.34947,0.37534c0.76685,-0.07558 1.58975,-0.04383 2.42768,0.11197c3.19956,0.59488 5.40653,2.77307 4.92939,4.86511c-0.47714,2.09203 -3.45769,3.30572 -6.65724,2.71084c-1.63063,-0.30318 -3.00347,-1.01759 -3.89455,-1.92227" fill="none" stroke="#000000" stroke-width="3.5" stroke-linecap="butt"/><path d="M49.04542,45.90633l1.99994,-0.02277c-0.63709,0.02766 -1.30582,-0.01716 -1.9844,-0.14333c-3.19956,-0.59489 -5.40653,-2.77307 -4.92939,-4.86511c0.47713,-2.09203 3.45769,-3.30572 6.65724,-2.71083c1.12964,0.21003 2.13557,0.61743 2.94331,1.14872" fill="none" stroke="#000000" stroke-width="3.5" stroke-linecap="butt"/><path d="M58.82357,46.04235l1.34947,0.37534c0.76685,-0.07558 1.58975,-0.04383 2.42768,0.11197c3.19956,0.59488 5.40653,2.77307 4.92939,4.86511c-0.47714,2.09203 -3.45769,3.30572 -6.65724,2.71084c-1.63063,-0.30318 -3.00347,-1.01759 -3.89455,-1.92227" fill="none" stroke="#000000" stroke-width="3.5" stroke-linecap="butt"/><path d="M61.5533,46.91224l1.99994,-0.02277c-0.63709,0.02766 -1.30582,-0.01716 -1.9844,-0.14333c-3.19956,-0.59489 -5.40653,-2.77307 -4.92939,-4.86511c0.47713,-2.09203 3.45769,-3.30572 6.65724,-2.71083c1.12964,0.21003 2.13557,0.61743 2.94331,1.14872" fill="none" stroke="#000000" stroke-width="3.5" stroke-linecap="butt"/></g></g></svg>